<?xml version="1.0"?>
<svg xmlns="http://www.w3.org/2000/svg" height="512px" viewBox="0 0 512 512" width="512px" class=""><g><path d="m512 286-74.230469 4.460938-54.769531 55.539062-29.5 76 29.5 90 120.386719-55.945312c5.257812-2.476563 8.613281-7.765626 8.613281-13.574219zm0 0" fill="#6b77e8" data-original="#6B77E8" class="" style="fill:#222222" data-old_color="#141414"/><path d="m256 286-30 93.8125 30 72.1875 127 60v-166l-52-54.707031zm0 0" fill="#7984eb" data-original="#7984EB" class="" style="fill:#444444" data-old_color="#383838"/><path d="m383 226h-93.25l-33.75 60 127 60 129-60zm0 0" fill="#979fef" data-original="#979FEF" class="active-path" style="fill:#666666" data-old_color="#636363"/><path d="m256 286-73.230469 4.460938-54.769531 55.539062-29.5 76 29.5 90 128-60zm0 0" fill="#6b77e8" data-original="#6B77E8" class="" style="fill:#222222" data-old_color="#141414"/><path d="m0 286v156.480469c0 5.808593 3.355469 11.097656 8.613281 13.574219l119.386719 55.945312v-166l-52-54.707031zm0 0" fill="#7984eb" data-original="#7984EB" class="" style="fill:#444444" data-old_color="#383838"/><path d="m128 226-128 60 128 60 128-60-68.566406-62.265625zm0 0" fill="#979fef" data-original="#979FEF" class="active-path" style="fill:#666666" data-old_color="#636363"/><path d="m383 60-72.730469 4.460938-54.269531 55.539062-30 76 30 90 127-60zm0 0" fill="#6b77e8" data-original="#6B77E8" class="" style="fill:#222222" data-old_color="#141414"/><path d="m128 60v166l128 60v-166l-52.5-54.707031zm0 0" fill="#7984eb" data-original="#7984EB" class="" style="fill:#444444" data-old_color="#383838"/><path d="m249.613281 1.429688-121.613281 58.570312 128 60 127-60-120.613281-58.570312c-4.042969-1.90625-8.730469-1.90625-12.773438 0zm0 0" fill="#979fef" data-original="#979FEF" class="active-path" style="fill:#666666" data-old_color="#636363"/></g> </svg>
